<?xml version="1.0" standalone="no"?>
<svg xmlns:xlink="http://www.w3.org/1999/xlink" id="wave" style="transform:rotate(180deg); transition: 0.3s" viewBox="0 0 1440 100" version="1.1" xmlns="http://www.w3.org/2000/svg"><defs><linearGradient id="sw-gradient-0" x1="0" x2="0" y1="1" y2="0"><stop stop-color="rgba(242, 255, 233, 1)" offset="0%"/><stop stop-color="rgba(242, 255, 233, 1)" offset="100%"/></linearGradient></defs><path style="transform:translate(0, 0px); opacity:1" fill="url(#sw-gradient-0)" d="M0,30L60,38.3C120,47,240,63,360,60C480,57,600,33,720,30C840,27,960,43,1080,48.3C1200,53,1320,47,1440,50C1560,53,1680,67,1800,66.7C1920,67,2040,53,2160,46.7C2280,40,2400,40,2520,38.3C2640,37,2760,33,2880,36.7C3000,40,3120,50,3240,45C3360,40,3480,20,3600,18.3C3720,17,3840,33,3960,48.3C4080,63,4200,77,4320,71.7C4440,67,4560,43,4680,30C4800,17,4920,13,5040,10C5160,7,5280,3,5400,16.7C5520,30,5640,60,5760,75C5880,90,6000,90,6120,88.3C6240,87,6360,83,6480,73.3C6600,63,6720,47,6840,41.7C6960,37,7080,43,7200,53.3C7320,63,7440,77,7560,80C7680,83,7800,77,7920,61.7C8040,47,8160,23,8280,26.7C8400,30,8520,60,8580,75L8640,90L8640,100L8580,100C8520,100,8400,100,8280,100C8160,100,8040,100,7920,100C7800,100,7680,100,7560,100C7440,100,7320,100,7200,100C7080,100,6960,100,6840,100C6720,100,6600,100,6480,100C6360,100,6240,100,6120,100C6000,100,5880,100,5760,100C5640,100,5520,100,5400,100C5280,100,5160,100,5040,100C4920,100,4800,100,4680,100C4560,100,4440,100,4320,100C4200,100,4080,100,3960,100C3840,100,3720,100,3600,100C3480,100,3360,100,3240,100C3120,100,3000,100,2880,100C2760,100,2640,100,2520,100C2400,100,2280,100,2160,100C2040,100,1920,100,1800,100C1680,100,1560,100,1440,100C1320,100,1200,100,1080,100C960,100,840,100,720,100C600,100,480,100,360,100C240,100,120,100,60,100L0,100Z"/></svg>